<?xml version="1.0" standalone="no"?>
<!DOCTYPE svg PUBLIC "-//W3C//DTD SVG 20010904//EN"
 "http://www.w3.org/TR/2001/REC-SVG-20010904/DTD/svg10.dtd">
<svg version="1.0" xmlns="http://www.w3.org/2000/svg"
 width="600.000000pt" height="600.000000pt" viewBox="0 0 600.000000 600.000000"
 preserveAspectRatio="xMidYMid meet">
<metadata>
Created by potrace 1.14, written by Peter Selinger 2001-2017
</metadata>
<g transform="translate(0.000000,600.000000) scale(0.100000,-0.100000)"
fill="#000000" stroke="none">
<path d="M1807 5993 c-3 -5 -8 -42 -11 -83 -4 -49 -2 -66 3 -50 5 14 9 40 10
58 1 21 6 32 16 32 11 0 14 -7 10 -22 -2 -13 -9 -57 -14 -98 -14 -100 -49
-325 -60 -375 -20 -91 -3 96 28 310 8 55 4 87 -6 58 -2 -7 -10 -10 -17 -7 -9
3 -12 -6 -9 -36 2 -22 4 -43 5 -47 1 -5 -2 -34 -6 -65 -5 -39 -12 -58 -21 -58
-8 0 -16 -14 -19 -32 -3 -18 -10 -67 -16 -108 -12 -80 -17 -92 -29 -71 -5 7
-12 13 -17 14 -5 1 -7 49 -5 105 l3 104 -23 -4 c-24 -3 -24 -3 -36 -213 -6
-115 -13 -231 -15 -257 l-3 -47 60 -6 c33 -3 116 -13 184 -21 68 -8 127 -12
132 -7 7 7 49 183 49 206 0 4 -4 5 -10 2 -5 -3 -20 0 -32 7 -22 12 -21 13 17
18 39 5 39 6 53 63 8 32 12 60 10 63 -3 2 -20 1 -38 -2 -26 -6 -36 -15 -48
-46 -12 -29 -20 -38 -39 -38 -18 0 -23 4 -19 18 2 9 18 105 35 212 27 171 50
310 67 403 4 19 1 27 -8 27 -9 0 -22 -41 -40 -132 -15 -73 -31 -149 -36 -168
-9 -33 -10 -34 -11 -7 -2 49 -18 20 -26 -45 -5 -50 -13 -70 -37 -98 l-30 -35
6 102 c3 56 10 124 15 150 5 26 15 75 21 108 6 33 13 75 14 93 2 34 -10 43
-21 16 -6 -15 -7 -15 -19 0 -6 10 -14 13 -17 9z"/>
<path d="M2590 5980 c0 -11 2 -20 4 -20 2 0 6 9 9 20 3 11 1 20 -4 20 -5 0 -9
-9 -9 -20z"/>
<path d="M3341 5882 c-207 -326 -386 -595 -407 -613 -10 -8 -15 -9 -11 -2 4 6
2 13 -3 15 -11 3 -2 28 40 111 10 20 14 37 9 37 -5 0 -12 -7 -15 -15 -4 -8
-12 -15 -18 -15 -7 0 -23 -11 -36 -25 -33 -35 -56 -32 -76 10 -9 19 -20 33
-24 30 -5 -3 -10 2 -12 10 -2 9 -24 -19 -51 -64 -45 -73 -71 -100 -85 -86 -5
5 18 66 65 174 4 9 1 12 -8 9 -8 -3 -13 -11 -12 -17 2 -6 -6 -11 -17 -11 -12
0 -30 -16 -46 -42 -44 -70 -124 -247 -113 -253 5 -4 9 2 10 12 0 12 4 9 11
-10 7 -19 7 -32 -1 -40 -5 -7 -8 -23 -4 -35 4 -18 1 -22 -19 -22 -15 0 -37
-14 -59 -37 -18 -21 -28 -33 -20 -26 17 15 51 0 51 -22 0 -8 5 -15 10 -15 6 0
10 -43 10 -108 0 -111 -4 -124 -52 -176 -18 -20 -18 -20 -18 1 0 11 -3 36 -6
54 -4 26 -3 30 5 19 9 -12 11 -11 11 7 0 31 -17 37 -31 11 -7 -13 -15 -25 -19
-28 -10 -7 -90 -142 -90 -152 0 -4 -7 -8 -16 -8 -19 0 -15 14 37 126 21 46 34
86 29 89 -4 3 -11 -6 -14 -20 -4 -14 -12 -25 -19 -25 -6 0 -17 -10 -23 -23 -7
-12 -42 -80 -79 -150 -37 -71 -65 -130 -63 -132 2 -2 26 -8 53 -14 l50 -10
-56 4 -56 5 -67 -130 c-36 -71 -66 -131 -66 -134 0 -3 22 -6 49 -6 28 0 53 -4
56 -10 4 -6 -5 -10 -21 -10 -15 0 -36 -7 -46 -17 -16 -14 -18 -14 -18 -1 0 9
-6 18 -14 21 -10 4 -35 -36 -85 -133 -39 -76 -71 -141 -71 -144 0 -3 32 -6 70
-6 46 0 70 -4 70 -11 0 -14 95 113 117 156 9 17 31 51 49 76 39 53 41 59 17
57 -34 -2 -54 2 -49 11 3 5 21 5 40 1 l34 -7 88 129 c49 71 112 161 139 201
170 243 165 235 150 247 -11 9 -19 3 -41 -29 -15 -23 -29 -39 -31 -37 -5 5 19
78 28 86 3 3 9 13 12 24 6 16 3 18 -19 13 l-26 -5 7 91 c4 49 9 96 12 103 7
18 160 19 198 2 24 -11 24 -12 9 -36 -8 -13 -14 -26 -11 -28 2 -3 60 80 129
183 69 103 178 268 244 367 329 492 338 507 326 527 -10 16 -9 19 7 19 11 0
23 5 26 10 4 6 -6 10 -22 10 -25 0 -36 -14 -102 -118z m-850 -1295 c-8 -8 -11
-7 -11 4 0 20 13 34 18 19 3 -7 -1 -17 -7 -23z"/>
<path d="M3823 5970 c-13 -15 -23 -32 -23 -36 0 -4 10 1 23 12 l22 19 -19 -22
c-11 -13 -25 -23 -32 -23 -7 0 -29 -24 -48 -54 -19 -29 -43 -62 -53 -72 -10
-11 -44 -50 -75 -89 -31 -38 -65 -79 -75 -90 -10 -11 -40 -50 -68 -85 -27 -36
-135 -173 -240 -305 -261 -328 -286 -363 -273 -385 6 -10 8 -32 4 -53 -7 -37
-15 -42 -64 -38 -12 1 -31 -7 -42 -17 -18 -17 -19 -21 -5 -32 18 -15 11 -30
-15 -30 -10 0 -20 -4 -22 -8 -1 -4 -23 -23 -47 -42 -34 -28 -253 -290 -431
-517 -14 -17 -87 -108 -163 -202 -76 -94 -143 -184 -148 -201 -6 -16 -17 -30
-23 -30 -7 0 -53 -53 -102 -117 -49 -64 -102 -130 -117 -147 -94 -102 -121
-128 -144 -143 l-26 -17 13 24 c7 14 16 27 20 30 4 3 34 43 68 90 33 47 69 96
80 110 10 14 39 58 65 98 l47 72 -33 0 c-31 1 -31 1 -12 16 11 9 34 22 51 29
31 14 92 90 81 101 -4 4 -39 9 -78 12 -64 4 -72 3 -66 -12 4 -9 2 -16 -4 -16
-6 0 -8 -4 -4 -10 3 -5 -5 -21 -17 -35 -27 -31 -41 -65 -28 -65 6 0 10 5 10
11 0 8 5 8 15 -1 24 -20 17 -32 -17 -28 -31 3 -32 1 -100 -127 -66 -127 -98
-192 -98 -203 0 -12 -63 -102 -71 -102 -5 0 -5 8 1 18 12 20 58 143 70 187 11
40 34 99 40 105 3 3 23 46 44 97 25 59 36 98 31 112 -4 14 -2 21 7 21 17 0 88
138 88 172 0 19 -5 25 -21 24 -19 -1 -29 -21 -70 -140 -27 -76 -47 -142 -44
-146 3 -5 1 -10 -5 -12 -6 -2 -38 -84 -71 -183 -64 -190 -79 -224 -102 -243
-12 -10 -13 -8 -9 13 4 24 2 25 -44 26 -27 0 -78 2 -114 4 -36 2 -173 6 -305
10 -200 5 -238 4 -227 -7 10 -10 66 -13 248 -13 168 0 237 -3 242 -12 4 -6 23
-14 42 -16 19 -3 -8 -3 -60 -1 -52 3 -176 5 -275 5 l-180 0 -163 86 c-90 47
-166 83 -169 80 -3 -3 19 -18 49 -33 29 -15 86 -49 127 -75 41 -27 79 -49 86
-49 7 0 18 -7 25 -15 16 -19 7 -19 -33 -1 -61 27 -102 37 -105 26 -4 -12 -39
-13 -106 -4 -51 7 -60 31 -10 26 28 -2 27 -1 -10 18 -58 29 -148 62 -141 50 3
-5 13 -10 21 -10 8 0 14 -4 14 -9 0 -5 -9 -7 -20 -4 -19 5 -50 -17 -50 -36 0
-17 38 -33 43 -18 7 19 23 -29 48 -144 48 -226 57 -263 58 -248 1 9 -12 83
-28 166 -16 83 -32 177 -35 209 -6 58 -6 59 8 23 7 -19 17 -60 22 -90 4 -29 9
-46 12 -36 2 9 8 17 14 17 7 0 9 -19 5 -52 -5 -51 3 -98 44 -263 l17 -70 1 46
c2 104 15 228 23 223 4 -3 5 11 2 32 -4 25 -1 39 8 45 24 15 30 10 27 -25 -2
-19 0 -38 4 -42 10 -11 9 -54 -2 -54 -5 0 -7 8 -4 19 3 10 0 22 -5 25 -7 4 -8
-29 -5 -93 6 -111 1 -147 -25 -155 -9 -3 4 -3 31 -1 61 6 67 -19 7 -29 -33 -5
-40 -10 -39 -29 0 -21 1 -21 10 -2 7 15 8 8 4 -23 -5 -44 19 -212 36 -244 7
-13 4 -23 -11 -38 -11 -11 -23 -19 -26 -19 -11 3 -93 -53 -98 -67 -3 -8 -13
-14 -23 -14 -10 0 -29 -9 -43 -20 -14 -11 -30 -20 -36 -20 -6 0 -24 -12 -40
-27 -16 -15 -36 -28 -45 -30 -10 -1 -43 -20 -75 -41 -33 -22 -69 -44 -82 -51
-13 -7 -27 -23 -32 -37 -7 -16 -17 -24 -34 -24 -46 0 -76 -21 -76 -52 l0 -29
48 27 c26 15 54 33 63 41 13 11 107 72 304 198 146 93 190 115 195 99 5 -15 7
-15 19 0 7 9 18 13 23 10 6 -4 13 -2 17 5 4 6 35 14 69 17 34 4 59 10 57 14
-3 4 3 7 12 6 29 -2 25 22 -4 26 -21 2 -28 9 -29 26 -2 30 33 44 100 40 l51
-3 3 -39 c2 -24 -2 -42 -10 -47 -9 -6 -8 -9 5 -15 32 -12 46 3 49 53 l3 48 83
3 c81 3 82 3 93 -24 5 -15 7 -34 4 -41 -3 -8 0 -24 6 -35 15 -29 31 -9 33 42
1 23 9 46 17 51 21 13 143 11 157 -3 7 -7 12 -31 12 -55 0 -34 3 -41 15 -37
10 4 15 19 15 43 0 20 5 42 12 49 14 14 94 16 103 2 3 -5 14 -10 24 -10 24 0
36 -50 15 -66 -12 -10 -12 -13 1 -24 8 -7 15 -18 15 -25 0 -8 6 -26 14 -42 36
-72 70 -150 127 -293 34 -85 65 -159 69 -165 10 -14 33 -85 36 -114 1 -14 10
-28 18 -33 9 -5 16 -16 16 -24 0 -52 65 -176 83 -158 22 22 -85 322 -125 352
-10 7 -18 25 -18 39 0 31 -49 145 -67 156 -7 4 -13 18 -13 31 0 20 -18 66 -80
201 -26 55 -47 121 -43 133 3 7 18 67 33 135 l29 122 -22 18 c-25 22 -22 26
-52 -88 l-20 -80 -73 -3 -74 -3 6 239 5 239 -237 5 c-130 3 -238 4 -239 3 -2
-1 -6 -104 -10 -228 -3 -125 -10 -227 -14 -227 -5 0 -6 -7 -3 -15 5 -11 -1
-15 -25 -15 -36 0 -42 17 -8 23 20 4 20 4 -4 6 -14 0 -30 -4 -36 -10 -6 -6
-25 -13 -42 -15 -29 -3 -30 -2 -40 49 -18 92 -31 170 -28 172 1 1 11 7 22 14
17 10 15 11 -20 9 l-40 -3 -20 98 c-21 103 -35 125 -35 53 0 -25 -4 -47 -9
-51 -6 -3 -8 38 -5 107 6 129 13 141 77 135 27 -3 40 0 44 10 4 11 22 13 92 7
47 -4 91 -11 98 -16 8 -6 15 -3 23 11 7 14 20 21 38 20 27 -2 26 -2 -3 -6
l-30 -5 34 -14 c39 -16 75 -19 66 -4 -3 6 2 11 12 11 10 1 2 5 -17 9 l-35 7
33 2 c57 2 34 20 -30 24 -50 3 -46 4 20 3 55 0 79 -3 72 -10 -15 -15 -12 -53
6 -60 31 -12 64 -7 58 9 -5 12 3 15 42 15 72 0 128 -11 112 -21 -8 -6 0 -9 24
-9 20 0 40 -5 44 -11 5 -8 8 -8 13 0 11 17 206 24 269 10 51 -12 52 -13 53
-48 1 -28 6 -16 24 52 25 97 31 109 41 82 4 -10 -16 -114 -45 -237 -29 -121
-51 -221 -48 -224 2 -3 34 114 70 258 36 145 64 264 62 266 -2 2 -13 -2 -25
-8 -37 -20 -33 -4 9 38 23 22 41 45 41 52 0 6 6 10 12 9 7 -2 47 31 88 72 100
99 339 322 356 332 17 10 18 25 2 24 -7 0 -43 1 -79 1 -55 2 -67 5 -71 20 -3
12 1 18 11 19 9 1 21 2 26 3 6 1 41 2 79 1 63 -1 68 -2 63 -21 -5 -18 -2 -18
26 6 18 15 167 158 332 319 165 160 336 325 379 366 44 41 156 149 250 240 94
91 202 195 239 230 38 35 133 127 212 204 78 77 224 220 324 318 100 97 177
177 172 177 -4 0 -6 65 -3 145 l4 145 -228 -1 -229 0 -22 -29z m-43 -105 c-6
-15 -13 -25 -16 -23 -2 3 1 17 7 32 7 14 14 24 16 22 2 -2 -1 -16 -7 -31z
m-873 -1477 c-3 -8 -6 -5 -6 6 -1 11 2 17 5 13 3 -3 4 -12 1 -19z m-623 -454
c9 -23 -1 -34 -30 -34 -28 0 -44 28 -23 41 22 14 46 11 53 -7z m-134 -114 c0
-5 -2 -10 -4 -10 -3 0 -8 5 -11 10 -3 6 -1 10 4 10 6 0 11 -4 11 -10z m-369
-495 c-1 -15 -24 -12 -29 3 -3 9 2 13 12 10 10 -1 17 -7 17 -13z m-363 -63 c6
-18 -15 -14 -22 4 -4 10 -1 14 6 12 6 -2 14 -10 16 -16z m-468 -22 c0 -5 -13
-10 -30 -10 -16 0 -30 5 -30 10 0 6 14 10 30 10 17 0 30 -4 30 -10z m395 -10
c47 -7 45 -7 -30 -8 -44 0 -89 3 -100 8 -26 11 59 11 130 0z m-97 -27 c-10 -2
-26 -2 -35 0 -10 3 -2 5 17 5 19 0 27 -2 18 -5z m59 1 c-3 -3 -12 -4 -19 -1
-8 3 -5 6 6 6 11 1 17 -2 13 -5z m-614 -11 c-7 -2 -19 -2 -25 0 -7 3 -2 5 12
5 14 0 19 -2 13 -5z m705 0 c-16 -2 -40 -2 -55 0 -16 2 -3 4 27 4 30 0 43 -2
28 -4z m-883 -72 c3 -5 2 -12 -3 -15 -5 -3 -9 1 -9 9 0 17 3 19 12 6z m16 -62
c-9 -23 -10 -22 -10 11 -1 23 2 31 9 24 7 -7 7 -19 1 -35z m631 -139 c-2 -63
-8 -117 -13 -118 -6 -3 -6 -8 0 -15 5 -7 8 -48 8 -92 l-2 -80 -90 0 -90 0 1
60 c1 33 2 103 3 155 0 52 4 121 7 153 l7 58 86 -3 86 -3 -3 -115z m191 113
l38 -6 -2 -111 c-1 -61 -4 -115 -7 -120 -3 -5 -4 -48 -3 -97 l2 -89 -80 0
c-45 0 -84 0 -88 0 -13 1 -7 158 7 175 7 9 8 15 2 15 -11 0 -17 214 -7 231 7
10 81 12 138 2z"/>
<path d="M1245 2795 c25 -8 115 -11 115 -4 0 5 -28 9 -62 8 -35 0 -58 -2 -53
-4z"/>
<path d="M4329 5898 c0 -57 -2 -120 -5 -142 l-4 -39 93 89 c50 49 92 92 91 97
-1 4 -2 27 -2 52 l-2 45 -85 0 -85 0 -1 -102z"/>
<path d="M4540 5970 c0 -16 4 -30 8 -30 5 0 21 14 37 30 l29 30 -37 0 c-34 0
-37 -2 -37 -30z"/>
<path d="M5369 5920 c-57 -44 -123 -94 -147 -112 -24 -18 -52 -32 -62 -31 -12
2 -17 -2 -15 -10 3 -6 -12 -26 -33 -43 -36 -30 -375 -289 -506 -387 -44 -33
-65 -56 -69 -75 -3 -15 -4 -28 -3 -29 1 -2 113 79 248 180 135 100 265 196
289 213 82 58 484 355 494 365 5 5 -10 9 -41 9 -48 0 -56 -4 -155 -80z"/>
<path d="M1650 5980 c20 -13 60 -13 60 0 0 6 -17 10 -37 10 -28 0 -34 -3 -23
-10z"/>
<path d="M1620 5941 c0 -5 14 -11 31 -15 45 -9 65 -8 54 3 -14 12 -85 22 -85
12z"/>
<path d="M1620 5883 c0 -8 14 -13 40 -13 22 0 40 4 40 9 0 5 -18 11 -40 13
-28 2 -40 0 -40 -9z"/>
<path d="M2543 5853 c-3 -10 -12 -33 -19 -52 -16 -39 -18 -53 -3 -29 14 25 39
98 33 98 -2 0 -7 -8 -11 -17z"/>
<path d="M1620 5818 c0 -20 8 -30 31 -42 27 -13 31 -13 36 0 4 11 8 12 13 4 4
-7 9 1 12 19 5 37 -2 43 -53 45 -36 1 -39 -1 -39 -26z"/>
<path d="M1610 5738 c0 -4 16 -8 35 -8 19 0 35 2 35 4 0 2 -16 6 -35 8 -19 2
-35 0 -35 -4z"/>
<path d="M2480 5693 c-48 -125 -84 -209 -97 -224 -7 -8 -13 -25 -13 -36 0 -23
-51 -44 -58 -24 -2 7 -10 4 -20 -5 -14 -15 -17 -15 -28 1 -10 14 -18 -2 -53
-107 -22 -68 -50 -151 -62 -186 -12 -34 -19 -65 -16 -68 3 -4 28 -7 54 -8 44
-1 48 1 51 23 3 17 -4 30 -19 42 -28 20 -25 24 19 34 25 5 32 3 32 -9 0 -30
15 -23 16 7 0 18 26 95 56 172 99 247 170 437 165 441 -2 3 -14 -21 -27 -53z
m-250 -433 c0 -5 -4 -10 -10 -10 -5 0 -10 5 -10 10 0 6 5 10 10 10 6 0 10 -4
10 -10z m60 -5 c0 -8 -6 -15 -14 -15 -20 0 -29 17 -14 23 22 9 28 7 28 -8z
m-55 -65 c3 -5 -1 -10 -9 -10 -9 0 -16 5 -16 10 0 6 4 10 9 10 6 0 13 -4 16
-10z"/>
<path d="M4586 5730 c14 -14 62 -18 66 -5 2 6 -15 11 -37 13 -29 2 -37 0 -29
-8z"/>
<path d="M1610 5699 c0 -10 54 -19 63 -9 5 4 -7 10 -27 12 -20 2 -36 1 -36 -3z"/>
<path d="M1610 5650 c0 -5 14 -10 31 -10 17 0 28 4 24 10 -3 6 -17 10 -31 10
-13 0 -24 -4 -24 -10z"/>
<path d="M2986 5463 c-6 -14 -5 -15 5 -6 7 7 10 15 7 18 -3 3 -9 -2 -12 -12z"/>
<path d="M4375 5164 c-33 -25 -69 -52 -79 -61 -11 -9 -47 -37 -80 -62 -34 -25
-85 -65 -115 -89 -30 -23 -60 -41 -66 -38 -7 2 -12 -1 -11 -9 1 -12 -136 -123
-337 -273 -98 -73 -435 -326 -571 -428 -77 -58 -134 -111 -95 -88 19 11 140
99 428 312 113 83 280 207 371 274 91 67 224 165 295 218 72 53 171 126 221
163 68 50 93 74 97 95 3 15 5 28 4 29 -1 1 -29 -19 -62 -43z"/>
<path d="M950 5161 c16 -9 279 -36 286 -28 2 2 -51 9 -118 16 -68 7 -136 14
-153 16 -20 3 -25 2 -15 -4z"/>
<path d="M1350 5120 c185 -18 195 -19 175 -11 -12 5 -75 11 -140 14 -106 5
-110 5 -35 -3z"/>
<path d="M1290 5046 c0 -21 -47 -47 -78 -44 -19 2 -27 -2 -27 -12 0 -20 43
-25 63 -7 42 36 82 48 140 42 68 -8 125 -32 171 -73 27 -26 44 -32 100 -37 61
-5 197 -27 230 -36 8 -2 16 3 18 12 3 10 -4 19 -18 22 -18 5 -21 11 -18 51 l4
46 -40 4 c-22 3 -105 10 -185 16 -80 6 -189 16 -244 21 -123 11 -116 12 -116
-5z m297 -38 c7 -6 25 -7 40 -3 43 11 205 6 220 -7 9 -7 13 -26 11 -47 -3 -32
-6 -36 -28 -33 -203 23 -230 29 -274 63 -24 19 -42 37 -40 40 5 8 56 -1 71
-13z"/>
<path d="M1000 4998 c0 -39 1 -40 15 -22 19 25 19 50 0 58 -12 4 -15 -3 -15
-36z"/>
<path d="M1340 4890 c-13 -9 -13 -10 0 -10 8 0 22 5 30 10 13 9 13 10 0 10 -8
0 -22 -5 -30 -10z"/>
<path d="M1390 4889 c0 -5 5 -7 10 -4 6 3 10 8 10 11 0 2 -4 4 -10 4 -5 0 -10
-5 -10 -11z"/>
<path d="M2071 4864 c0 -11 3 -14 6 -6 3 7 2 16 -1 19 -3 4 -6 -2 -5 -13z"/>
<path d="M1091 4844 c-23 -29 -28 -88 -9 -100 8 -5 9 0 5 16 -7 26 8 70 29 87
9 6 11 14 5 17 -5 3 -19 -6 -30 -20z"/>
<path d="M1290 4855 c0 -11 -5 -15 -15 -11 -14 5 -14 2 0 -24 8 -16 15 -47 15
-70 0 -37 2 -40 30 -41 17 -1 36 -2 43 -3 6 -1 13 9 15 21 3 20 8 22 50 18 26
-2 68 -4 95 -5 39 0 47 -3 47 -19 0 -22 -29 -36 -44 -21 -5 5 -21 10 -36 10
-19 0 -22 2 -10 10 10 6 5 9 -18 8 -35 -1 -43 -15 -14 -24 95 -32 106 -76 27
-110 -22 -10 -25 -13 -11 -14 19 0 217 -41 298 -61 34 -9 37 -11 25 -30 -10
-16 -19 -18 -57 -13 -25 3 -57 10 -71 15 -46 18 -150 36 -155 28 -3 -5 -4 -57
-3 -116 0 -59 -2 -136 -6 -170 l-8 -63 39 0 c62 0 174 -12 174 -19 0 -3 -11
-14 -24 -23 -22 -16 -24 -16 -22 0 1 14 -9 17 -61 17 -34 1 -65 4 -69 8 -15
14 -32 6 -38 -18 -6 -24 -8 -24 -84 -19 -42 3 -83 7 -90 10 -7 2 -23 -1 -34
-7 -13 -7 -23 -7 -27 -2 -3 6 -27 11 -53 12 -47 1 -48 1 -48 -30 0 -28 -3 -31
-26 -26 -14 2 -22 1 -17 -3 4 -4 27 -10 51 -13 36 -4 42 -3 38 10 -3 8 1 21 9
29 13 14 15 11 15 -20 0 -20 -4 -36 -10 -36 -5 0 -10 -7 -10 -16 0 -13 -3 -14
-14 -5 -10 9 -461 50 -548 51 -20 0 -5 30 15 31 12 0 3 6 -23 13 -52 14 -58
12 -40 -9 10 -12 8 -16 -14 -26 -14 -7 -26 -16 -26 -21 0 -12 -17 -10 -32 5
-13 14 -36 16 -333 33 l-110 7 -37 41 -37 41 -1 -86 0 -86 213 -12 c116 -7
354 -21 527 -31 173 -10 347 -18 385 -18 l70 0 -54 9 c-63 11 -63 11 -56 32 5
13 22 14 105 10 86 -5 100 -4 106 11 3 9 10 16 15 16 14 0 11 -28 -3 -33 -7
-3 4 -6 25 -6 20 -1 38 0 40 1 1 1 12 -4 25 -11 16 -9 21 -18 17 -32 -5 -16
-1 -19 29 -19 34 0 36 -2 36 -35 0 -21 5 -35 13 -35 8 0 9 -2 1 -8 -6 -4 -14
-17 -18 -28 -5 -18 -2 -22 25 -28 17 -3 49 -6 70 -6 21 0 41 -5 45 -12 5 -8
-13 -9 -69 -4 -72 6 -77 6 -77 -13 0 -11 -4 -22 -8 -25 -5 -3 -72 -1 -150 4
-283 18 -535 24 -528 12 3 -6 1 -14 -5 -17 -6 -4 -13 2 -15 13 -6 21 -51 25
-429 39 -77 3 -174 7 -215 10 -74 5 -75 4 -50 -13 38 -27 51 -47 37 -56 -7 -4
34 -8 90 -8 99 0 101 1 95 22 -3 14 -2 19 6 14 7 -4 12 -13 12 -21 0 -8 8 -14
18 -14 9 0 78 -4 152 -10 152 -11 517 -31 660 -36 52 -2 143 -7 203 -11 l107
-7 0 -49 0 -48 55 0 c30 0 58 -1 62 -2 4 -2 17 38 29 87 12 50 29 109 38 132
12 35 13 43 1 53 -8 7 -19 9 -24 5 -6 -3 -19 -1 -28 4 -14 8 -8 10 28 11 44 0
47 2 53 31 3 17 6 49 6 70 0 34 -3 39 -22 40 -68 1 -309 26 -315 32 -15 16 12
17 148 6 238 -18 211 -23 226 41 7 30 10 61 8 68 -3 8 1 19 8 27 13 12 80 272
76 291 -1 5 3 21 9 36 31 75 65 269 49 284 -4 4 -8 0 -8 -9 -1 -9 -3 -21 -4
-27 -1 -5 -3 -17 -4 -25 0 -8 -7 -12 -15 -9 -9 4 -18 -6 -26 -30 -7 -21 -18
-36 -27 -36 -13 0 -14 9 -9 53 4 28 10 62 13 75 5 20 1 22 -31 22 -25 0 -36
-4 -36 -15 0 -8 -4 -15 -10 -15 -5 0 -10 9 -10 20 0 16 -7 20 -35 20 -31 0
-35 -3 -36 -27 l-1 -28 -7 28 c-9 40 -114 82 -233 92 -79 6 -88 5 -88 -10z
m40 -75 c0 -5 -4 -10 -10 -10 -5 0 -10 5 -10 10 0 6 5 10 10 10 6 0 10 -4 10
-10z m343 -22 c-9 -49 -19 -54 -15 -8 2 22 8 40 13 40 5 0 6 -15 2 -32z m31
-23 c-4 -8 -8 -15 -10 -15 -2 0 -4 7 -4 15 0 8 4 15 10 15 5 0 7 -7 4 -15z
m-74 -31 c0 -33 -2 -35 -27 -32 -22 2 -27 8 -25 23 5 37 11 45 32 45 16 0 20
-6 20 -36z m60 -604 c0 -5 -2 -10 -4 -10 -3 0 -8 5 -11 10 -3 6 -1 10 4 10 6
0 11 -4 11 -10z"/>
<path d="M2710 4854 c0 -5 -13 -16 -29 -26 -37 -20 -57 -54 -37 -61 14 -6 82
81 72 91 -3 3 -6 1 -6 -4z"/>
<path d="M2072 4758 c-1 -48 -5 -89 -10 -92 -15 -9 -42 21 -36 40 4 11 4 16 0
12 -4 -3 -24 -57 -45 -120 l-38 -113 26 -9 c35 -12 34 -11 22 -35 -9 -17 -16
-19 -37 -11 -18 7 -26 6 -29 -3 -2 -6 -22 -66 -44 -132 -23 -65 -41 -125 -41
-132 0 -7 9 -13 20 -13 11 0 20 -5 20 -10 0 -6 -12 -9 -27 -8 -26 3 -28 1 -25
-32 1 -22 -1 -30 -6 -22 -6 9 -12 1 -20 -26 -16 -52 -16 -52 12 -52 21 0 31
19 104 203 123 311 193 499 187 505 -2 3 -8 -4 -12 -14 -5 -12 -10 12 -14 66
l-5 85 -2 -87z"/>
<path d="M1245 4820 c-3 -5 -1 -10 4 -10 6 0 11 5 11 10 0 6 -2 10 -4 10 -3 0
-8 -4 -11 -10z"/>
<path d="M0 4731 c0 -45 3 -81 8 -81 12 0 1037 -79 1176 -90 70 -6 130 -9 133
-7 4 4 -104 20 -202 30 -98 10 -295 41 -295 46 0 3 9 21 20 39 16 26 26 32 55
32 19 0 35 4 35 9 0 5 3 17 7 27 4 10 2 15 -4 11 -5 -3 -61 -2 -124 3 -130 11
-350 26 -589 40 -91 6 -177 13 -192 16 l-28 6 0 -81z"/>
<path d="M1174 4785 c-8 -21 2 -45 20 -45 19 0 27 47 9 54 -21 8 -23 8 -29 -9z"/>
<path d="M2606 4791 c-4 -7 -5 -15 -2 -18 9 -9 19 4 14 18 -4 11 -6 11 -12 0z"/>
<path d="M1127 4760 c-4 -15 0 -20 14 -20 21 0 22 1 13 24 -8 22 -21 20 -27
-4z"/>
<path d="M2120 4760 c-6 -11 -9 -26 -7 -33 3 -7 10 1 16 17 14 35 7 47 -9 16z"/>
<path d="M2594 4735 c-18 -14 -18 -14 3 -15 23 0 39 15 25 24 -5 3 -18 -1 -28
-9z"/>
<path d="M1390 4716 c0 -9 7 -16 16 -16 9 0 14 5 12 12 -6 18 -28 21 -28 4z"/>
<path d="M968 4683 c7 -3 16 -2 19 1 4 3 -2 6 -13 5 -11 0 -14 -3 -6 -6z"/>
<path d="M1010 4675 c36 -10 452 -66 457 -61 5 5 -12 8 -137 26 -36 5 -101 14
-145 21 -79 12 -204 22 -175 14z"/>
<path d="M1348 4553 c6 -2 18 -2 25 0 6 3 1 5 -13 5 -14 0 -19 -2 -12 -5z"/>
<path d="M4285 4525 c-27 -8 -66 -18 -85 -22 -41 -7 -99 -34 -155 -73 -22 -16
-95 -60 -162 -99 -67 -39 -127 -76 -135 -83 -7 -7 -40 -31 -73 -53 -32 -22
-79 -60 -104 -85 -26 -25 -84 -77 -130 -115 -124 -102 -216 -223 -258 -339
-19 -53 -73 -366 -73 -423 0 -25 -11 -99 -25 -165 -14 -66 -25 -131 -25 -144
0 -15 -6 -24 -16 -24 -13 0 -15 -7 -9 -42 4 -24 14 -47 21 -53 7 -5 18 -32 24
-59 21 -95 131 -296 163 -296 4 0 5 6 1 13 -4 6 1 5 12 -4 24 -19 136 -69 157
-69 20 0 29 -50 10 -57 -8 -3 -12 -12 -9 -19 3 -7 -2 -17 -10 -22 -15 -8 -17
-28 -15 -127 3 -101 1 -120 -11 -100 -6 11 -14 22 -18 25 -3 3 -9 13 -13 23
-4 11 -12 15 -19 11 -8 -5 -9 -2 -5 9 7 19 -11 67 -25 67 -4 0 -9 -6 -9 -12
-2 -24 -17 47 -18 87 -1 43 -15 74 -27 62 -4 -4 -3 -22 3 -41 6 -20 7 -38 2
-43 -5 -5 -5 -22 1 -38 9 -31 28 -113 34 -152 4 -22 22 -81 37 -121 5 -13 9
-32 9 -42 0 -10 7 -23 16 -28 8 -5 16 -16 18 -25 3 -21 16 -35 16 -17 0 11 3
11 12 2 8 -8 8 -15 -2 -27 -11 -13 -11 -16 0 -13 8 2 15 -4 16 -12 0 -8 2 -23
2 -32 1 -10 9 -18 17 -18 18 0 19 -12 3 -28 -9 -9 -7 -12 9 -12 11 0 23 -7 27
-15 3 -8 1 -15 -4 -15 -6 0 -10 -4 -10 -10 0 -5 7 -10 16 -10 10 0 14 -6 11
-15 -4 -8 -2 -17 4 -21 6 -3 8 -12 5 -20 -3 -7 -1 -16 4 -19 6 -4 10 -1 10 5
0 6 5 8 10 5 25 -16 7 -44 -52 -80 -111 -68 -271 -177 -352 -239 -43 -34 -92
-71 -108 -82 -16 -12 -40 -36 -52 -53 -20 -27 -22 -38 -15 -69 13 -55 13 -55
-34 -48 -51 8 -64 -3 -64 -49 0 -24 -14 -44 -64 -95 -35 -36 -95 -113 -133
-170 -38 -58 -106 -150 -151 -205 -163 -201 -180 -226 -165 -236 12 -7 10 -9
-7 -9 -29 0 -29 -14 0 -28 21 -11 21 -11 -4 -6 -15 3 -30 1 -33 -4 -7 -11 78
-40 134 -45 35 -4 34 -4 -5 -5 -22 -1 -58 5 -80 13 -53 19 -72 18 -78 -2 -3
-10 -24 -51 -47 -90 l-41 -73 328 1 c287 1 322 3 283 14 -32 9 -38 13 -20 14
14 0 47 -6 74 -14 27 -8 63 -15 80 -14 l31 1 -40 19 c-22 10 -34 19 -27 19 7
0 30 -9 52 -20 39 -20 59 -20 1560 -20 l1520 0 0 510 c0 460 -2 510 -16 510
-9 0 -18 -9 -21 -20 -3 -11 -9 -20 -13 -20 -4 0 -13 -14 -20 -30 -7 -17 -17
-33 -22 -36 -5 -3 9 29 31 72 41 79 45 98 15 73 -16 -13 -16 -12 -7 6 6 11 8
26 6 33 -3 7 0 18 6 25 8 10 3 24 -16 53 -15 21 -30 41 -35 42 -4 2 -8 8 -8
13 0 21 -158 218 -238 297 -48 48 -82 89 -79 96 3 8 -10 28 -28 46 -25 25 -40
31 -59 28 -14 -3 -26 -1 -26 3 0 5 6 9 13 10 6 0 3 4 -8 8 -11 5 -95 6 -187 3
-139 -4 -168 -7 -168 -20 0 -11 9 -13 46 -7 26 3 82 7 125 7 64 0 86 -5 114
-22 19 -12 35 -24 35 -27 0 -9 -28 -33 -39 -33 -6 0 -8 -7 -5 -15 4 -11 0 -15
-16 -15 -12 0 -35 -9 -51 -21 -24 -17 -27 -24 -18 -35 9 -11 7 -14 -12 -15
-13 -1 -28 -1 -32 0 -4 1 -6 -11 -5 -26 2 -21 -3 -30 -19 -38 -13 -5 -23 -13
-23 -17 0 -10 -54 -65 -115 -118 -28 -24 -80 -70 -116 -104 -97 -91 -133 -121
-139 -117 -3 2 -12 -9 -20 -25 -19 -37 -31 -45 -47 -32 -9 7 -13 7 -13 -1 0
-6 -10 -11 -22 -12 -13 0 -18 -3 -11 -6 9 -3 9 -8 2 -16 -5 -7 -16 -21 -24
-32 -14 -20 -14 -20 -15 3 0 14 -6 22 -17 22 -13 0 -15 2 -5 8 10 7 8 14 -7
33 -19 24 -19 26 -1 37 14 9 20 8 23 -1 4 -9 6 -9 6 1 1 6 11 12 24 13 12 0
16 3 9 6 -6 2 -10 9 -6 14 3 5 0 9 -5 9 -13 0 -10 22 4 32 5 4 15 2 22 -4 10
-8 12 -7 8 3 -6 17 31 19 56 4 11 -7 12 -6 2 7 -7 8 -10 18 -6 21 3 4 1 7 -5
7 -22 0 -12 18 14 24 14 4 35 16 47 26 11 11 27 20 34 20 7 0 13 7 13 15 0 18
-11 19 -30 2 -12 -10 -12 -9 -2 4 7 9 26 22 42 29 17 7 30 15 30 19 0 3 25 26
55 50 30 24 52 48 49 53 -4 6 -9 6 -13 1 -7 -10 -59 -35 -84 -40 -10 -2 -31
-10 -47 -18 -38 -19 -61 -19 -54 0 4 8 1 15 -5 15 -6 0 -11 6 -11 14 0 9 7 13
20 11 16 -3 20 2 20 21 0 13 5 24 10 24 6 0 10 6 10 13 1 6 14 23 30 37 17 13
30 32 30 41 0 10 9 24 20 32 11 8 17 17 14 20 -4 4 -1 13 6 22 7 8 9 15 5 15
-5 0 0 9 9 19 10 11 15 24 12 30 -4 5 3 16 14 24 14 10 18 20 13 33 -6 16 -5
17 9 6 15 -12 15 -9 6 29 -7 24 -7 44 -2 48 11 8 12 162 0 180 -7 11 -10 11
-17 0 -14 -23 -20 -4 -8 30 6 17 8 38 5 47 -5 12 -2 15 10 10 8 -3 18 -6 20
-6 3 0 2 -6 -2 -12 -4 -8 -3 -10 2 -5 5 5 9 12 9 15 1 4 4 24 9 45 6 32 4 41
-11 53 -11 8 -13 13 -5 14 17 0 15 20 -2 20 -8 0 -13 8 -11 18 1 9 9 16 17 16
12 -1 14 9 10 47 -3 31 -1 49 6 49 6 0 13 -8 16 -17 3 -12 4 -10 3 5 -1 12 -5
21 -10 20 -10 -4 -37 49 -37 73 0 11 -5 19 -10 19 -6 0 -9 3 -8 8 1 4 -3 18
-9 32 -14 35 -23 111 -12 104 5 -3 9 0 9 5 0 6 -3 11 -7 11 -5 0 -9 16 -10 34
-1 26 2 33 13 29 8 -3 14 -14 14 -24 0 -28 17 -23 28 9 7 18 11 21 11 9 1 -10
-8 -36 -20 -58 -14 -28 -18 -50 -14 -70 9 -41 20 -43 51 -12 18 18 29 23 32
15 2 -7 8 -9 13 -6 6 3 7 -4 4 -18 -3 -13 -1 -35 5 -48 10 -23 10 -23 6 -2 -3
14 1 22 10 22 8 0 19 9 26 20 17 26 28 25 28 -2 1 -21 4 -19 35 15 91 104 65
294 -77 551 -9 17 -17 37 -18 45 0 25 32 -11 53 -59 11 -25 28 -57 38 -71 10
-14 16 -29 12 -33 -3 -3 -1 -6 5 -6 21 0 13 35 -23 106 -19 37 -35 72 -35 77
0 4 -11 23 -25 41 -14 18 -25 44 -25 58 0 13 -3 28 -7 31 -3 4 -8 17 -9 30 -1
12 -9 50 -17 85 -8 34 -11 65 -6 68 5 3 9 11 9 17 0 8 -3 8 -9 -1 -7 -11 -9
-11 -14 2 -3 8 -1 16 6 19 7 2 3 11 -11 22 -12 11 -22 24 -22 30 0 5 5 3 10
-5 5 -8 10 -10 10 -5 0 18 -36 65 -45 58 -4 -5 -5 -3 -2 4 6 10 -5 30 -86 146
-14 21 -38 48 -52 59 -14 11 -24 23 -21 26 3 2 13 -1 22 -9 16 -13 16 -12 4
11 -7 14 -17 28 -22 31 -5 3 -10 15 -11 27 0 11 -5 18 -9 16 -4 -3 -8 4 -8 14
0 11 -7 25 -15 32 -9 7 -26 27 -37 44 -20 28 -20 29 -2 15 10 -8 32 -23 47
-33 l28 -17 24 53 c26 58 44 158 28 158 -6 0 -20 27 -32 60 -12 32 -26 62 -31
65 -6 4 -10 17 -10 31 0 14 -4 22 -10 19 -5 -3 -10 -1 -10 6 0 6 -13 27 -30
46 -16 18 -30 31 -30 27 0 -3 -8 3 -17 14 -25 30 -109 69 -184 86 -102 23
-255 28 -314 11z m-305 -715 c0 -125 -4 -190 -10 -190 -7 0 -9 58 -4 181 5
147 4 183 -7 190 -11 7 -10 9 4 9 16 0 17 -16 17 -190z m-36 174 c21 -8 20
-31 -1 -43 -10 -6 -12 -11 -5 -11 8 0 12 -19 11 -62 l-2 -63 -9 60 c-5 33 -9
68 -9 77 0 12 -9 16 -30 16 -23 -1 -27 -4 -18 -15 14 -16 11 -16 -28 -3 -23 9
-40 7 -74 -6 -24 -9 -52 -16 -61 -17 -9 -1 -15 -3 -13 -5 2 -3 -7 -19 -20 -37
-14 -17 -25 -38 -25 -46 0 -12 -2 -12 -9 1 -6 8 -8 17 -5 21 2 4 0 10 -6 14
-5 3 -10 -3 -10 -15 0 -12 -4 -18 -10 -15 -14 9 -12 -5 5 -39 16 -30 14 -43
-4 -31 -6 3 -11 15 -11 26 0 10 -5 19 -11 19 -6 0 -9 -6 -6 -12 2 -7 0 -21 -5
-32 -8 -14 -7 -17 4 -10 11 6 11 5 0 -8 -9 -11 -10 -18 -2 -23 5 -3 10 -12 10
-18 0 -7 -4 -6 -10 3 -7 12 -9 10 -7 -7 0 -12 4 -21 7 -20 7 3 8 -14 2 -36 -4
-14 -7 -16 -13 -5 -5 8 -7 2 -5 -17 3 -26 -14 -53 -34 -55 -3 0 -5 32 -5 70 0
39 2 70 5 70 3 0 6 19 7 43 3 101 23 166 52 165 9 -1 59 11 112 26 53 14 123
30 155 35 32 5 60 9 61 10 1 0 8 -2 17 -5z m-86 -109 c20 5 24 4 16 -5 -18
-18 -58 -8 -62 15 -3 19 -2 19 9 2 8 -14 18 -17 37 -12z m987 5 c3 -5 1 -10
-4 -10 -6 0 -11 5 -11 10 0 6 2 10 4 10 3 0 8 -4 11 -10z m49 -49 c-2 -3 -12
3 -22 13 -16 17 -16 18 5 5 12 -7 20 -15 17 -18z m-1040 -111 c-12 -4 -48 -11
-80 -14 -32 -4 -68 -9 -79 -11 -11 -3 -14 -2 -6 1 9 4 10 9 3 13 -6 4 19 8 55
9 37 1 69 5 72 7 2 3 16 5 30 4 24 0 25 -1 5 -9z m76 -14 c0 -2 -7 -7 -16 -10
-8 -3 -12 -2 -9 4 6 10 25 14 25 6z m10 -36 c0 -11 -4 -20 -9 -20 -5 0 -7 9
-4 20 3 11 7 20 9 20 2 0 4 -9 4 -20z m-108 -4 c7 4 8 2 4 -5 -9 -13 -26 -5
-25 12 0 9 2 8 6 -1 2 -6 10 -9 15 -6z m-128 -36 c5 -31 4 -36 -14 -36 -15 0
-18 5 -14 18 4 13 0 18 -14 18 -27 0 -33 -10 -20 -34 10 -19 9 -19 -5 -8 -13
11 -16 10 -20 -5 -3 -10 -5 -4 -6 13 -1 33 12 44 50 44 11 0 22 7 26 15 7 20
9 17 17 -25z m-187 -22 c-2 -13 -4 -5 -4 17 -1 22 1 32 4 23 2 -10 2 -28 0
-40z m235 38 c-21 -11 -19 -12 32 -12 31 1 56 4 56 9 0 4 15 7 33 6 l32 -1
-28 -8 c-16 -5 -36 -15 -45 -22 -13 -11 -14 -11 -7 1 6 11 3 13 -16 8 -13 -4
-28 -7 -32 -7 -5 0 -5 -6 -1 -12 6 -10 4 -10 -7 0 -16 14 -43 16 -34 2 3 -5 2
-10 -4 -10 -12 0 -24 37 -16 50 3 5 18 10 33 10 l27 -1 -23 -13z m-152 -42 c0
-8 -5 -12 -10 -9 -6 4 -8 11 -5 16 9 14 15 11 15 -7z m1074 -450 c31 -31 55
-59 52 -61 -9 -9 -167 40 -192 59 -29 23 -24 32 26 46 54 16 54 15 114 -44z
m-1204 21 c0 -18 16 -20 23 -2 4 9 8 8 16 -3 15 -21 13 -30 -6 -31 -16 0 -16
-1 0 -8 16 -6 16 -9 5 -18 -29 -23 -60 -25 -99 -7 -38 19 -53 44 -25 44 8 0
16 -6 19 -12 2 -8 8 -9 13 -4 5 5 4 11 -3 13 -21 8 -15 21 15 31 38 14 42 14
42 -3z m1685 -35 c-5 -8 -11 -8 -17 -2 -6 6 -7 16 -3 22 5 8 11 8 17 2 6 -6 7
-16 3 -22z m-270 -70 c10 -33 -4 -60 -31 -60 -13 0 -24 -6 -25 -12 -1 -25 -18
28 -18 60 -1 30 1 32 33 32 26 0 36 -5 41 -20z m-1600 -10 c-4 -13 -1 -22 9
-26 24 -9 19 -21 -10 -27 -23 -4 -25 -3 -18 27 7 34 12 46 20 46 3 0 2 -9 -1
-20z m30 -10 c3 -5 -1 -10 -9 -10 -9 0 -16 5 -16 10 0 6 4 10 9 10 6 0 13 -4
16 -10z m1551 -78 c-3 -5 6 -15 19 -22 14 -7 25 -18 25 -24 0 -6 14 -39 31
-73 32 -65 56 -199 39 -217 -5 -5 -1 -16 10 -25 20 -17 31 -60 15 -60 -5 0 -9
8 -7 19 2 10 -1 21 -6 24 -15 9 -12 -58 4 -82 21 -31 8 -48 -19 -25 -12 10
-17 11 -10 3 6 -8 14 -33 17 -55 3 -22 3 -34 0 -27 -3 6 -10 10 -15 7 -5 -3
-17 12 -26 35 -18 40 -33 52 -33 26 0 -8 5 -18 11 -22 8 -4 7 -9 -2 -15 -11
-7 -10 -9 4 -9 9 0 17 -2 17 -4 0 -2 3 -13 6 -23 5 -16 4 -16 -10 1 -16 19
-16 19 -16 -3 0 -14 -7 -25 -20 -28 -23 -6 -27 -23 -6 -23 7 0 20 -7 27 -17
13 -15 12 -15 -8 -4 -21 11 -27 8 -24 -12 1 -5 -3 -6 -9 -2 -5 3 -10 16 -10
28 0 30 -15 51 -30 42 -7 -5 -10 -19 -6 -39 5 -29 5 -30 -9 -12 -8 11 -15 24
-15 29 0 6 -8 15 -17 22 -14 11 -19 10 -29 -3 -7 -10 -16 -12 -25 -6 -8 5 -23
9 -34 9 -12 0 -21 8 -23 20 -2 11 -7 29 -12 40 -16 37 -21 75 -10 75 7 0 8 6
2 16 -7 13 0 31 29 71 21 30 41 68 44 84 8 35 15 36 45 4 30 -32 38 -32 36 0
0 16 -6 23 -13 20 -16 -6 -18 41 -2 51 8 4 8 9 0 17 -6 6 -11 25 -11 43 0 18
-6 35 -12 37 -10 4 -10 8 1 16 12 8 13 14 3 36 -11 24 -10 27 8 32 11 3 17 10
13 16 -4 6 2 8 15 5 12 -4 25 -2 28 3 3 5 10 9 15 9 6 0 8 -4 5 -8z m-138
-167 l-1 -60 -7 55 c-4 30 -10 71 -13 90 l-7 35 15 -30 c8 -17 14 -56 13 -90z
m-909 -372 c-1 -5 0 -10 1 -13 1 -3 4 -24 6 -47 4 -35 2 -43 -11 -43 -9 0 -14
-4 -11 -9 4 -5 0 -11 -6 -14 -10 -3 -10 -7 1 -20 17 -21 2 -22 -35 -2 -16 8
-36 15 -45 15 -23 0 -41 25 -37 52 2 18 10 24 36 26 24 2 32 -1 32 -12 0 -9 5
-16 10 -16 6 0 10 7 10 15 0 9 7 18 15 21 8 4 12 10 9 16 -8 12 3 38 16 38 5
0 9 -3 9 -7z m218 -35 c35 -36 40 -46 30 -59 -16 -21 -67 -31 -67 -13 0 7 -7
17 -15 22 -13 7 -14 14 -5 36 8 21 7 32 -1 42 -9 11 -8 14 3 14 7 0 32 -19 55
-42z m183 -24 c0 -16 -2 -16 -24 -8 -13 5 -14 9 -5 20 13 16 29 9 29 -12z
m-62 4 c-2 -6 -10 -14 -16 -16 -7 -2 -10 2 -6 12 7 18 28 22 22 4z m917 2 c3
-5 1 -10 -4 -10 -6 0 -11 5 -11 10 0 6 2 10 4 10 3 0 8 -4 11 -10z m-121 -46
c3 -8 2 -12 -4 -9 -6 3 -10 10 -10 16 0 14 7 11 14 -7z m-173 -37 c13 -27 14
-35 3 -45 -18 -17 -21 -16 -28 16 -4 15 -9 35 -12 45 -9 30 20 18 37 -16z
m137 -12 c-3 -3 -9 2 -12 12 -6 14 -5 15 5 6 7 -7 10 -15 7 -18z m-179 -34
c-1 -13 -2 -12 -6 2 -2 9 -9 17 -14 17 -5 0 -9 8 -9 18 1 15 2 15 15 -2 8 -11
14 -27 14 -35z m248 -103 c-3 -8 -6 -5 -6 6 -1 11 2 17 5 13 3 -3 4 -12 1 -19z
m80 -19 c2 -17 -1 -18 -13 -9 -17 15 -18 30 -1 30 7 0 13 -9 14 -21z m-52 -9
c3 -5 1 -10 -4 -10 -6 0 -11 5 -11 10 0 6 2 10 4 10 3 0 8 -4 11 -10z m-795
-111 c0 -5 4 -8 9 -5 13 9 34 -21 27 -39 -8 -21 -48 -35 -63 -23 -16 13 -17
50 -1 66 15 15 28 15 28 1z m63 -4 c4 -8 3 -16 -1 -19 -4 -3 -9 4 -9 15 -2 23
3 25 10 4z m644 -29 c-8 -17 -14 -20 -23 -12 -9 8 -9 12 2 14 8 2 14 10 14 18
0 8 4 13 9 10 5 -4 4 -16 -2 -30z m-996 8 c10 -9 15 -23 12 -32 -4 -10 -2 -13
5 -8 7 4 12 16 12 27 0 36 89 18 91 -19 0 -10 7 -3 15 16 12 27 19 32 49 32
36 0 55 -20 55 -59 0 -15 -10 -22 -42 -29 -29 -6 -48 -5 -57 2 -10 8 -15 8
-18 -1 -3 -7 -11 -13 -19 -13 -8 0 -14 -9 -14 -20 0 -11 -5 -20 -11 -20 -6 0
-13 9 -16 20 -6 23 -23 27 -23 5 0 -17 -18 -19 -39 -6 -8 5 -10 14 -6 21 6 10
0 12 -25 7 -27 -6 -30 -5 -21 7 6 7 10 22 10 32 -5 55 9 68 42 38z m-63 -13
c3 -8 -1 -12 -9 -9 -7 2 -15 10 -17 17 -3 8 1 12 9 9 7 -2 15 -10 17 -17z
m526 -87 c4 -10 1 -14 -6 -12 -15 5 -23 28 -10 28 5 0 13 -7 16 -16z m-314 -3
c0 -17 -18 -21 -24 -6 -3 9 0 15 9 15 8 0 15 -4 15 -9z m278 -26 c-1 -13 -9
-27 -16 -30 -8 -3 -12 -11 -9 -18 3 -7 -4 -24 -15 -38 -11 -13 -17 -18 -13
-11 4 7 0 12 -9 12 -20 0 -21 29 -1 36 8 4 15 14 15 24 0 19 25 50 41 50 5 0
8 -11 7 -25z m-498 -41 c27 -14 31 -19 17 -22 -10 -2 -29 4 -42 12 -28 19 -32
10 -10 -21 9 -12 22 -20 29 -17 7 3 21 -6 30 -20 15 -24 15 -26 0 -26 -9 0
-18 -9 -21 -20 -3 -12 -14 -20 -27 -20 -27 0 -66 27 -66 45 0 7 -13 16 -30 20
-28 6 -43 25 -19 25 5 0 9 12 8 28 -1 15 -1 37 -1 49 l2 23 48 -19 c26 -11 63
-27 82 -37z m-20 -155 c0 -7 9 -9 21 -6 21 6 21 5 -2 -19 -19 -21 -24 -22 -32
-9 -4 8 -6 19 -2 24 3 5 -1 12 -7 14 -8 3 -6 6 5 6 9 1 17 -4 17 -10z m-130
-129 c0 -5 -5 -10 -11 -10 -5 0 -7 5 -4 10 3 6 8 10 11 10 2 0 4 -4 4 -10z
m-130 -150 c12 -23 8 -25 -20 -8 -15 10 -22 9 -38 -5 -10 -9 -26 -17 -36 -17
-13 0 -11 -5 11 -24 34 -30 29 -37 -20 -27 -21 5 -35 5 -31 0 3 -5 0 -9 -7 -9
-7 0 -3 -9 9 -20 12 -12 22 -25 22 -30 0 -20 -26 -9 -52 20 -24 28 -29 30 -50
18 -47 -26 -58 -41 -59 -77 l-1 -36 -9 30 c-21 70 24 115 160 162 35 12 69 27
74 32 17 17 35 13 47 -9z m20 -40 c0 -5 -2 -10 -4 -10 -3 0 -8 5 -11 10 -3 6
-1 10 4 10 6 0 11 -4 11 -10z m125 -140 c-3 -5 -10 -10 -16 -10 -5 0 -9 5 -9
10 0 6 7 10 16 10 8 0 12 -4 9 -10z m35 0 c0 -5 -5 -10 -11 -10 -5 0 -7 5 -4
10 3 6 8 10 11 10 2 0 4 -4 4 -10z m-260 -31 c0 -5 -6 -9 -14 -9 -31 0 -34
-51 -5 -105 11 -22 25 -51 30 -65 l10 -24 -22 19 c-55 51 -76 146 -39 180 11
10 17 23 13 29 -4 6 1 5 10 -3 9 -7 17 -17 17 -22z m244 15 c9 -3 13 -11 10
-16 -4 -6 2 -5 14 1 15 8 23 8 28 -1 5 -7 2 -8 -7 -3 -8 4 -4 -2 9 -14 12 -12
22 -26 22 -31 0 -6 7 -10 15 -10 9 0 12 6 9 15 -10 24 12 17 48 -15 18 -17 41
-33 50 -36 10 -3 18 -9 18 -14 0 -7 182 -27 203 -22 4 1 7 -4 7 -12 0 -8 -9
-12 -26 -10 -15 1 -34 -1 -43 -6 -9 -5 -29 -12 -46 -16 l-30 -7 25 -7 c44 -14
100 -11 126 6 13 9 27 14 31 11 3 -4 12 1 20 11 8 9 12 11 8 5 -3 -7 -1 -13 4
-13 6 0 11 5 11 10 0 6 11 10 25 10 14 0 25 -4 25 -10 0 -5 24 -11 53 -11 47
-1 49 -2 17 -8 -19 -4 -43 -11 -52 -17 -15 -8 -12 -11 17 -20 29 -9 33 -9 24
2 -9 11 -6 14 19 14 16 0 35 -6 41 -14 14 -17 91 -59 97 -53 3 2 -8 16 -22 30
-25 26 -26 27 -6 27 12 0 32 -11 46 -25 14 -14 35 -26 48 -26 19 -1 19 -2 4
-6 -14 -4 -17 -11 -12 -33 5 -28 -18 -64 -26 -41 -1 6 -19 13 -38 16 l-35 6
30 -16 c27 -14 28 -15 5 -11 -24 5 -24 4 -6 -9 11 -8 15 -15 8 -15 -6 0 -14
-11 -18 -24 -3 -14 -14 -32 -24 -41 -16 -14 -18 -14 -23 0 -4 8 -11 15 -16 15
-6 0 -7 -8 -4 -17 5 -12 2 -15 -8 -11 -10 4 -19 -4 -27 -21 -23 -51 -145 -99
-171 -67 -24 29 -5 51 46 54 64 3 87 29 78 86 -8 48 -39 102 -67 117 -10 6
-33 11 -49 11 -16 1 -33 7 -37 14 -6 10 -18 10 -62 -2 -30 -8 -57 -19 -58 -24
-3 -7 -9 -6 -19 2 -20 16 -63 22 -63 8 0 -6 4 -9 9 -5 5 3 13 0 17 -6 5 -8 0
-10 -18 -6 -16 4 -39 -1 -63 -13 -43 -22 -65 -25 -65 -10 0 6 -9 10 -19 10
-22 0 -54 -27 -46 -40 3 -5 1 -11 -5 -15 -5 -3 -10 -1 -10 4 0 17 -34 7 -60
-17 -13 -12 -29 -22 -34 -22 -11 1 37 46 67 65 15 9 12 22 -24 130 -39 118
-58 212 -40 200 5 -3 12 -1 16 5 7 12 8 12 29 4z m2194 -164 c-7 -11 -16 -20
-21 -20 -4 0 -3 9 3 20 6 11 15 20 20 20 6 0 5 -9 -2 -20z m-1265 -37 c-7 -2
-19 -2 -25 0 -7 3 -2 5 12 5 14 0 19 -2 13 -5z m-6 -19 c-3 -3 -12 -4 -19 -1
-8 3 -5 6 6 6 11 1 17 -2 13 -5z m-1111 -66 c6 -24 14 -52 18 -63 4 -11 -4 0
-18 25 -25 45 -33 80 -18 80 4 0 12 -19 18 -42z m1071 26 c-3 -3 -12 -4 -19
-1 -8 3 -5 6 6 6 11 1 17 -2 13 -5z m-1199 -49 c-9 -9 -30 14 -23 25 6 9 10 8
17 -4 6 -10 8 -19 6 -21z m-148 -5 c0 -11 -4 -20 -8 -20 -4 0 -8 9 -8 20 0 11
4 20 8 20 4 0 8 -9 8 -20z m208 -26 c-24 -24 -44 -7 -22 17 12 13 21 16 28 9
7 -7 5 -15 -6 -26z m452 -4 c0 -5 -7 -10 -15 -10 -8 0 -15 5 -15 10 0 6 7 10
15 10 8 0 15 -4 15 -10z m-909 -22 c11 -21 11 -22 -4 -9 -10 7 -17 17 -17 22
0 15 9 10 21 -13z m29 12 c0 -5 -2 -10 -4 -10 -3 0 -8 5 -11 10 -3 6 -1 10 4
10 6 0 11 -4 11 -10z m820 6 c0 -2 -7 -7 -16 -10 -8 -3 -12 -2 -9 4 6 10 25
14 25 6z m-505 -36 c3 -5 1 -10 -4 -10 -6 0 -11 5 -11 10 0 6 2 10 4 10 3 0 8
-4 11 -10z m2438 -5 c-3 -9 -8 -14 -10 -11 -3 3 -2 9 2 15 9 16 15 13 8 -4z
m-2372 -20 c30 -5 54 -23 44 -33 -7 -8 -74 19 -87 35 -7 9 -8 14 -2 10 6 -3
26 -9 45 -12z m172 -4 c3 -13 0 -18 -8 -15 -7 3 -20 -2 -29 -11 -11 -11 -16
-12 -16 -4 0 12 30 47 41 48 4 1 9 -8 12 -18z m347 -1 c0 -14 -35 -17 -48 -4
-9 10 -9 13 1 17 16 5 47 -3 47 -13z m-185 0 c-3 -5 -12 -10 -18 -10 -7 0 -6
4 3 10 19 12 23 12 15 0z m-103 -16 c-13 -9 -21 -22 -18 -29 3 -8 -2 -11 -15
-8 -22 6 -26 23 -5 23 7 0 19 7 26 15 7 8 17 15 23 15 6 0 1 -7 -11 -16z m216
-9 c3 -11 0 -15 -7 -10 -6 3 -9 10 -6 15 3 4 0 11 -5 13 -6 3 -5 4 2 3 7 -1
15 -11 16 -21z m-61 -31 c-3 -20 -1 -24 12 -19 13 5 14 4 3 -6 -10 -11 -15
-10 -29 4 -11 11 -13 17 -5 17 7 0 11 3 11 8 -2 13 1 22 7 22 4 0 4 -12 1 -26z
m-100 -70 c-3 -3 -12 -4 -19 -1 -8 3 -5 6 6 6 11 1 17 -2 13 -5z m433 -6 c0
-16 -52 -29 -79 -20 l-26 9 35 10 c41 12 70 12 70 1z m-664 -23 c-11 -8 -24
-15 -30 -15 -5 0 -1 7 10 15 10 8 24 14 29 14 6 0 1 -6 -9 -14z m1059 -15 c3
-5 1 -10 -4 -10 -6 0 -11 5 -11 10 0 6 2 10 4 10 3 0 8 -4 11 -10z m-1137 -12
c7 -7 12 -15 12 -19 0 -11 -38 2 -51 17 -9 11 -8 14 8 14 10 0 24 -5 31 -12z
m1187 -8 c3 -6 -1 -7 -9 -4 -18 7 -21 14 -7 14 6 0 13 -4 16 -10z m-603 -19
c16 -19 16 -20 -12 -16 -15 2 -38 8 -49 15 -12 6 -27 8 -33 4 -7 -4 -8 -3 -4
4 12 20 80 14 98 -7z m-585 -38 c1 -16 -2 -21 -7 -13 -4 7 -13 9 -19 6 -15 -9
-14 7 1 22 18 18 23 15 25 -15z m2204 -37 c15 9 10 -2 -6 -16 -13 -10 -15 -9
-14 11 0 13 3 18 6 11 2 -6 9 -10 14 -6z m-1398 -16 c-5 -19 -23 -29 -23 -12
0 7 20 32 26 32 1 0 0 -9 -3 -20z m-496 -15 c6 -14 7 -25 2 -25 -5 0 -9 4 -9
9 0 4 -12 6 -27 3 -24 -4 -26 -3 -16 10 7 8 10 18 6 21 -3 4 2 7 13 7 10 0 24
-11 31 -25z m1067 10 c3 -8 1 -15 -4 -15 -6 0 -10 7 -10 15 0 8 2 15 4 15 2 0
6 -7 10 -15z m-1439 -4 c-3 -6 3 -14 12 -20 17 -10 17 -10 0 -11 -10 0 -15 -5
-12 -10 10 -16 -25 -24 -38 -10 -10 10 -8 12 6 7 11 -4 17 -2 16 6 -3 27 2 47
12 47 5 0 8 -4 4 -9z m2212 -15 c0 -8 -6 -12 -15 -9 -11 5 -11 7 0 14 7 5 13
9 14 9 0 0 1 -6 1 -14z m-1397 -6 c0 -5 -2 -10 -4 -10 -3 0 -8 5 -11 10 -3 6
-1 10 4 10 6 0 11 -4 11 -10z m-742 -17 c-2 -9 -14 -27 -27 -40 -15 -16 -21
-31 -18 -44 4 -15 2 -19 -9 -15 -8 3 -14 1 -14 -4 0 -6 6 -10 14 -10 8 0 18
-4 21 -10 4 -6 -1 -7 -11 -3 -12 4 -15 3 -10 -5 5 -8 2 -10 -9 -6 -10 4 -26
-3 -42 -17 -26 -24 -26 -23 6 36 28 53 87 135 98 135 2 0 3 -7 1 -17z m947
-21 c-1 -1 -10 0 -19 4 -13 5 -14 9 -4 21 10 13 13 13 19 -4 3 -10 5 -19 4
-21z m-565 13 c10 -12 9 -15 -6 -15 -10 0 -28 -10 -39 -23 -28 -31 -75 -67
-89 -67 -6 1 1 11 15 23 14 12 38 39 54 60 30 40 46 45 65 22z m1673 4 c-18
-5 -33 -14 -33 -20 0 -6 -4 -8 -10 -4 -21 13 3 35 39 34 l36 -1 -32 -9z
m-2155 -28 c11 -7 11 -9 -1 -14 -16 -6 -27 0 -27 15 0 10 11 10 28 -1z m306
-38 c-33 -24 -51 -14 -19 11 17 14 32 20 34 14 2 -6 -4 -17 -15 -25z m1846 33
c0 -3 -4 -8 -10 -11 -5 -3 -10 -1 -10 4 0 6 5 11 10 11 6 0 10 -2 10 -4z
m-1350 -41 c-26 -14 -36 -13 -27 2 3 5 16 9 29 10 l23 2 -25 -14z m-45 -5 c3
-6 -4 -10 -17 -10 -18 0 -20 2 -8 10 19 12 18 12 25 0z m-510 -30 c-3 -6 1
-13 9 -16 9 -3 16 -11 16 -16 0 -6 -7 -4 -16 3 -14 12 -19 11 -30 -6 -27 -41
-40 -53 -62 -60 -22 -6 -23 -5 -12 14 13 24 81 90 93 91 5 0 5 -5 2 -10z m390
0 c-3 -5 -12 -10 -18 -10 -7 0 -6 4 3 10 19 12 23 12 15 0z m-540 -39 c8 -14
-8 -21 -34 -14 -17 4 -19 8 -9 14 17 11 35 11 43 0z m10 -31 c-3 -5 0 -10 7
-10 9 0 9 -3 -2 -10 -21 -13 -33 -12 -24 2 5 8 2 9 -9 5 -10 -3 -17 -4 -17 -1
0 2 10 9 23 14 29 12 29 12 22 0z m-130 -28 c-8 -8 -25 10 -19 20 4 6 9 5 15
-3 4 -7 6 -15 4 -17z m425 24 c0 -2 -7 -7 -16 -10 -8 -3 -12 -2 -9 4 6 10 25
14 25 6z m-1182 -45 c29 -10 58 -23 65 -30 6 -6 -15 -1 -48 13 -33 13 -67 26
-75 29 -8 3 -10 6 -5 6 6 1 34 -7 63 -18z m-110 -8 c-10 -2 -26 -2 -35 0 -10
3 -2 5 17 5 19 0 27 -2 18 -5z m962 -25 c0 -6 -3 -9 -6 -5 -8 7 -56 -16 -78
-38 -9 -9 -16 -12 -16 -6 0 10 77 61 93 61 4 0 7 -5 7 -12z m-840 -14 c23 -9
39 -18 37 -20 -2 -3 -24 4 -48 15 -54 24 -45 27 11 5z m32 -57 c16 -12 28 -22
28 -24 0 -4 -90 46 -100 55 -15 14 49 -14 72 -31z m290 -7 c77 -19 164 -57
155 -66 -3 -3 -16 1 -29 10 -12 8 -63 26 -113 41 -102 29 -114 33 -100 34 6 0
45 -8 87 -19z m-207 -8 c-3 -3 -11 0 -18 7 -9 10 -8 11 6 5 10 -3 15 -9 12
-12z m118 -19 c-7 -2 -19 -2 -25 0 -7 3 -2 5 12 5 14 0 19 -2 13 -5z m42 -11
c-3 -3 -11 0 -18 7 -9 10 -8 11 6 5 10 -3 15 -9 12 -12z m-121 -12 c7 -7 1 -7
-19 -1 -54 17 -61 21 -25 16 19 -3 39 -10 44 -15z"/>
<path d="M3630 3895 c0 -8 6 -15 13 -15 17 0 56 29 40 30 -6 0 -15 -4 -18 -10
-3 -5 -11 -10 -16 -10 -6 0 -7 5 -4 10 3 6 1 10 -4 10 -6 0 -11 -7 -11 -15z"/>
<path d="M4540 3160 c0 -5 5 -10 10 -10 6 0 10 5 10 10 0 6 -4 10 -10 10 -5 0
-10 -4 -10 -10z"/>
<path d="M3440 3161 c0 -5 5 -13 10 -16 6 -3 10 -2 10 4 0 5 -4 13 -10 16 -5
3 -10 2 -10 -4z"/>
<path d="M4820 2642 c0 -5 9 -20 19 -33 20 -24 20 -24 14 -2 -6 24 -33 53 -33
35z"/>
<path d="M4722 2556 c7 -8 15 -12 17 -11 5 6 -10 25 -20 25 -5 0 -4 -6 3 -14z"/>
<path d="M4690 2410 c0 -5 7 -10 16 -10 8 0 12 5 9 10 -3 6 -10 10 -16 10 -5
0 -9 -4 -9 -10z"/>
<path d="M3770 1820 c0 -5 5 -10 11 -10 5 0 7 5 4 10 -3 6 -8 10 -11 10 -2 0
-4 -4 -4 -10z"/>
<path d="M4323 909 c9 -5 17 -18 18 -27 0 -11 2 -12 6 -4 6 15 -14 42 -31 42
-6 0 -3 -5 7 -11z"/>
<path d="M4510 860 c8 -5 22 -10 30 -10 13 0 13 1 0 10 -8 5 -22 10 -30 10
-13 0 -13 -1 0 -10z"/>
<path d="M4376 817 c3 -10 9 -15 12 -12 3 3 0 11 -7 18 -10 9 -11 8 -5 -6z"/>
<path d="M516 4154 c-8 -21 1 -34 25 -34 14 0 19 7 19 25 0 29 -34 36 -44 9z"/>
<path d="M520 4101 c0 -6 5 -13 10 -16 6 -3 10 1 10 9 0 9 -4 16 -10 16 -5 0
-10 -4 -10 -9z"/>
<path d="M2824 3982 c-251 -184 -344 -254 -344 -258 0 -8 8 -2 234 163 115 85
217 158 225 163 9 5 13 11 10 14 -3 3 -59 -34 -125 -82z"/>
<path d="M2490 3870 c0 -5 5 -10 10 -10 6 0 10 5 10 10 0 6 -4 10 -10 10 -5 0
-10 -4 -10 -10z"/>
<path d="M1905 3701 c-3 -5 -1 -12 5 -16 5 -3 10 1 10 9 0 18 -6 21 -15 7z"/>
<path d="M2373 3649 c-24 -17 -43 -32 -43 -35 0 -3 20 9 45 26 25 17 45 33 45
35 0 7 -2 6 -47 -26z"/>
<path d="M387 3584 c-3 -4 -2 -14 3 -24 12 -22 130 -29 130 -8 0 10 2 10 8 1
12 -18 394 -33 387 -15 -3 8 -5 17 -5 22 0 4 -109 11 -242 15 -134 3 -250 8
-259 11 -8 2 -18 1 -22 -2z"/>
<path d="M948 3541 c14 -15 43 -20 172 -26 85 -5 190 -7 233 -6 61 2 82 -1 90
-13 7 -8 32 -17 57 -19 l45 -4 -52 -1 c-46 -2 -53 -5 -53 -22 0 -19 -5 -20
-216 -14 -119 3 -221 7 -227 9 -16 5 -417 11 -417 6 0 -2 11 -14 26 -27 21
-20 35 -24 87 -23 38 1 53 4 39 7 -13 4 -22 12 -20 17 2 6 5 9 8 8 10 -3 317
-15 427 -16 62 -1 113 -6 113 -10 0 -5 37 -7 81 -6 67 2 83 -1 91 -15 18 -33
0 -38 -111 -32 -278 14 -614 19 -607 8 4 -7 27 -12 52 -12 24 0 44 -5 44 -10
0 -7 7 -7 21 1 25 13 446 2 455 -12 8 -14 122 -11 126 3 3 8 9 4 17 -10 9 -17
21 -22 49 -22 l38 0 23 110 c13 61 22 112 20 114 -5 5 -326 25 -496 30 -128 5
-132 4 -115 -13z m-298 -121 c0 -5 -2 -10 -4 -10 -3 0 -8 5 -11 10 -3 6 -1 10
4 10 6 0 11 -4 11 -10z"/>
<path d="M331 3506 c2 -2 15 -9 29 -15 24 -11 24 -11 6 3 -16 13 -49 24 -35
12z"/>
<path d="M5141 3424 c0 -11 3 -14 6 -6 3 7 2 16 -1 19 -3 4 -6 -2 -5 -13z"/>
<path d="M2526 3384 c-3 -9 -6 -30 -6 -47 0 -39 14 -26 28 26 8 29 8 37 -3 37
-7 0 -16 -7 -19 -16z"/>
<path d="M2617 3394 c-17 -17 -4 -23 45 -19 60 6 77 15 25 15 -19 0 -42 2 -49
5 -8 3 -17 2 -21 -1z"/>
<path d="M19 3379 c16 -6 22 -15 18 -29 -6 -22 9 -37 36 -37 13 0 17 9 17 39
l0 38 -47 -1 c-41 0 -44 -2 -24 -10z"/>
<path d="M1890 3365 c0 -16 16 -20 24 -6 3 5 -1 11 -9 15 -9 3 -15 0 -15 -9z"/>
<path d="M160 3333 c0 -31 15 -61 25 -51 9 9 -5 78 -16 78 -5 0 -9 -12 -9 -27z"/>
<path d="M2597 3341 c-4 -17 -3 -21 5 -13 5 5 8 16 6 23 -3 8 -7 3 -11 -10z"/>
<path d="M2715 3320 c-18 -19 -17 -20 3 -20 15 0 22 6 22 20 0 11 -2 20 -3 20
-2 0 -12 -9 -22 -20z"/>
<path d="M2054 3298 c-7 -23 11 -47 25 -32 5 5 12 18 15 29 5 16 1 21 -14 22
-11 1 -22 -6 -26 -19z"/>
<path d="M2117 3313 c-2 -4 -7 -24 -11 -43 l-6 -35 15 39 c13 35 15 61 2 39z"/>
<path d="M1972 3278 c-25 -50 -63 -211 -53 -221 8 -8 11 -6 11 7 0 9 4 14 10
11 6 -3 7 1 4 9 -3 9 -1 16 6 16 6 0 10 8 9 18 -1 9 1 24 4 32 14 35 25 93 21
105 -3 7 -1 16 5 20 13 7 15 25 3 25 -5 0 -14 -10 -20 -22z"/>
<path d="M30 3278 c0 -21 13 -33 35 -33 23 0 47 17 37 26 -4 4 -22 10 -39 14
-24 5 -33 3 -33 -7z"/>
<path d="M1862 3239 c-7 -29 -10 -54 -7 -57 3 -3 5 1 5 9 0 9 6 24 14 35 13
17 14 15 6 -22 -5 -23 -14 -54 -20 -68 -12 -33 -13 -74 -2 -61 5 6 19 49 31
97 20 78 21 89 8 103 -9 8 -17 15 -20 15 -2 0 -9 -23 -15 -51z"/>
<path d="M142 3250 c0 -14 2 -19 5 -12 2 6 2 18 0 25 -3 6 -5 1 -5 -13z"/>
<path d="M365 3260 c3 -5 8 -10 11 -10 2 0 4 5 4 10 0 6 -5 10 -11 10 -5 0 -7
-4 -4 -10z"/>
<path d="M2511 3254 c0 -11 3 -14 6 -6 3 7 2 16 -1 19 -3 4 -6 -2 -5 -13z"/>
<path d="M166 3230 c4 -16 2 -36 -4 -43 -8 -9 -5 -40 8 -107 11 -52 19 -98 20
-101 0 -3 14 -3 31 -1 29 4 30 6 24 41 -3 20 -13 41 -21 47 -10 8 -11 13 -3
16 8 3 6 27 -7 91 -15 70 -22 87 -36 87 -14 0 -16 -6 -12 -30z"/>
<path d="M2173 3234 c-3 -8 -1 -20 6 -27 8 -8 11 -8 11 0 0 6 3 18 6 27 3 9 1
16 -5 16 -7 0 -14 -7 -18 -16z"/>
<path d="M2035 3229 c-4 -6 -5 -12 -2 -15 2 -3 7 2 10 11 7 17 1 20 -8 4z"/>
<path d="M1921 3214 c0 -11 3 -14 6 -6 3 7 2 16 -1 19 -3 4 -6 -2 -5 -13z"/>
<path d="M330 3212 c0 -5 7 -17 16 -28 14 -17 15 -17 10 -1 -3 10 -6 23 -6 28
0 5 -4 9 -10 9 -5 0 -10 -4 -10 -8z"/>
<path d="M2720 3191 c0 -17 2 -31 4 -31 8 0 13 51 5 56 -5 3 -9 -9 -9 -25z"/>
<path d="M40 3193 c0 -13 39 -220 45 -243 3 -10 19 -15 46 -16 l41 -1 -6 41
c-8 50 -13 55 -54 58 -44 3 -41 18 4 18 34 0 36 2 30 25 -4 14 -9 45 -13 70
-3 25 -10 45 -14 45 -5 0 -8 -3 -8 -7 1 -5 1 -18 0 -30 -2 -39 -21 -25 -21 15
0 33 -3 37 -25 37 -14 0 -25 -5 -25 -12z"/>
<path d="M2033 3175 c-16 -12 -23 -12 -27 -2 -3 6 -3 -6 1 -28 3 -22 12 -49
19 -60 13 -18 14 -18 16 10 0 17 0 38 -1 49 0 10 4 25 10 32 15 18 9 18 -18
-1z"/>
<path d="M2564 3172 c-6 -4 -14 -17 -18 -29 -6 -18 -3 -23 12 -23 14 0 18 7
18 30 0 17 0 30 0 30 -1 0 -6 -4 -12 -8z"/>
<path d="M1841 3154 c0 -11 3 -14 6 -6 3 7 2 16 -1 19 -3 4 -6 -2 -5 -13z"/>
<path d="M21 3128 c-1 -15 3 -38 9 -53 8 -20 7 -27 -5 -31 -8 -4 -15 -12 -15
-20 0 -8 6 -11 16 -7 12 4 15 0 12 -18 -2 -14 -9 -23 -17 -21 -10 2 -12 -4 -7
-20 3 -13 6 -30 6 -39 0 -12 7 -15 25 -11 30 5 30 3 4 127 -24 118 -27 129
-28 93z"/>
<path d="M350 3125 c0 -8 2 -15 4 -15 2 0 6 7 10 15 3 8 1 15 -4 15 -6 0 -10
-7 -10 -15z"/>
<path d="M2061 3104 c0 -11 3 -14 6 -6 3 7 2 16 -1 19 -3 4 -6 -2 -5 -13z"/>
<path d="M2581 3111 c-10 -6 -10 -10 -1 -16 7 -4 19 0 28 9 14 13 14 16 2 16
-8 0 -21 -4 -29 -9z"/>
<path d="M2170 3084 c-12 -32 -13 -44 -1 -44 5 0 11 16 13 35 5 42 1 44 -12 9z"/>
<path d="M2630 3083 c1 -18 70 -70 70 -53 0 4 3 15 6 24 4 10 -5 20 -31 30
-46 20 -45 20 -45 -1z"/>
<path d="M2051 3064 c0 -11 3 -14 6 -6 3 7 2 16 -1 19 -3 4 -6 -2 -5 -13z"/>
<path d="M2120 3048 c-6 -18 -4 -27 12 -40 37 -33 54 -16 18 17 -15 14 -17 21
-9 32 9 10 8 13 0 13 -6 0 -16 -10 -21 -22z"/>
<path d="M1737 3054 c-4 -4 -7 -17 -7 -28 1 -19 1 -20 11 -3 11 19 8 43 -4 31z"/>
<path d="M2524 3046 c-4 -9 -5 -18 -3 -20 24 -17 150 -96 154 -96 3 0 5 6 5
14 0 8 -20 24 -44 36 -25 12 -58 35 -75 52 -26 27 -31 29 -37 14z"/>
<path d="M1670 2917 l-24 -98 -33 6 c-18 3 -33 4 -33 1 0 -6 102 -37 107 -33
11 12 20 112 14 162 l-6 60 -25 -98z"/>
<path d="M2006 2995 c-3 -8 -1 -15 4 -15 6 0 10 7 10 15 0 8 -2 15 -4 15 -2 0
-6 -7 -10 -15z"/>
<path d="M2107 2996 c-10 -25 -1 -49 24 -64 l24 -14 -24 22 -25 21 27 -6 c37
-10 35 12 -4 43 -14 10 -18 10 -22 -2z"/>
<path d="M2508 2963 c6 -2 12 -10 12 -16 1 -16 69 -59 88 -55 15 3 -86 79
-104 77 -5 0 -3 -3 4 -6z"/>
<path d="M2482 2890 c-6 -25 -14 -53 -17 -63 -6 -13 0 -18 25 -23 19 -4 35
-15 40 -28 5 -12 21 -32 35 -45 16 -15 24 -30 20 -40 -43 -117 -81 -211 -87
-211 -12 0 -9 24 7 63 24 58 17 77 -10 28 -43 -74 -42 -83 10 -105 51 -20 62
-18 46 12 -14 26 -14 33 0 30 15 -4 40 81 33 109 -4 14 -2 23 5 23 6 0 11 9
11 19 0 11 9 40 20 66 33 78 26 92 -42 87 -13 -1 -18 6 -18 27 0 20 -11 40
-34 63 l-34 34 -10 -46z m46 -28 c6 -18 -15 -14 -22 4 -4 10 -1 14 6 12 6 -2
14 -10 16 -16z"/>
<path d="M213 2922 c-19 -12 2 -34 28 -30 32 4 39 38 7 38 -13 0 -28 -4 -35
-8z"/>
<path d="M1966 2914 c-4 -10 -1 -21 6 -25 16 -10 25 18 10 33 -6 6 -12 3 -16
-8z"/>
<path d="M2011 2904 c0 -11 3 -14 6 -6 3 7 2 16 -1 19 -3 4 -6 -2 -5 -13z"/>
<path d="M128 2883 c-33 -5 -37 -23 -8 -30 22 -6 27 -29 9 -35 -8 -3 -10 -16
-5 -41 5 -27 12 -37 26 -37 31 0 50 11 50 31 0 40 -22 119 -33 118 -7 -1 -24
-4 -39 -6z"/>
<path d="M2687 2677 c-48 -218 -57 -287 -22 -162 11 36 28 73 39 83 20 18 19
15 -4 -31 -11 -23 -12 -30 -1 -37 9 -5 12 -21 9 -44 -3 -25 0 -36 9 -36 10 0
13 26 13 109 0 60 3 116 6 125 5 13 23 16 95 16 53 0 89 4 89 10 0 6 -10 10
-21 10 -12 0 -36 9 -54 20 -18 11 -49 21 -69 22 l-35 1 -3 66 c-3 65 -4 61
-51 -152z"/>
<path d="M492 2860 c0 -14 2 -19 5 -12 2 6 2 18 0 25 -3 6 -5 1 -5 -13z"/>
<path d="M2077 2866 c-3 -8 5 -19 19 -27 28 -15 27 -31 -6 -104 -26 -58 -33
-85 -22 -85 18 0 30 25 46 90 9 36 18 74 21 85 7 25 -49 65 -58 41z"/>
<path d="M2643 2873 c-7 -2 -9 -11 -6 -19 6 -18 -28 -19 -45 -2 -9 9 -12 8
-12 -5 0 -26 56 -23 70 4 13 23 11 28 -7 22z"/>
<path d="M53 2847 c-26 -11 -32 -43 -7 -33 9 3 22 6 30 6 15 0 20 26 7 33 -5
3 -18 0 -30 -6z"/>
<path d="M1931 2824 c0 -11 3 -14 6 -6 3 7 2 16 -1 19 -3 4 -6 -2 -5 -13z"/>
<path d="M1916 2774 c-4 -14 -5 -28 -3 -31 3 -2 8 8 11 23 4 14 5 28 3 31 -3
2 -8 -8 -11 -23z"/>
<path d="M2880 2746 c0 -9 30 -14 35 -6 4 6 -3 10 -14 10 -12 0 -21 -2 -21 -4z"/>
<path d="M3040 2716 c0 -2 7 -9 15 -16 9 -7 15 -8 15 -2 0 5 -7 12 -15 16 -8
3 -15 4 -15 2z"/>
<path d="M141 2700 c0 -8 4 -24 9 -35 l9 -20 0 20 c0 11 -4 27 -9 35 -9 13
-10 13 -9 0z"/>
<path d="M1450 2616 c0 -2 18 -6 40 -8 22 -2 40 0 40 4 0 5 -18 8 -40 8 -22 0
-40 -2 -40 -4z"/>
<path d="M520 2479 c0 -5 5 -7 10 -4 6 3 10 8 10 11 0 2 -4 4 -10 4 -5 0 -10
-5 -10 -11z"/>
<path d="M5101 2464 c-10 -22 -9 -25 6 -22 10 2 19 13 21 26 5 30 -12 28 -27
-4z"/>
<path d="M296 2413 c10 -40 14 -41 14 -5 0 18 -5 32 -10 32 -6 0 -8 -11 -4
-27z"/>
<path d="M5146 2423 c9 -7 21 -10 26 -7 14 9 -1 23 -23 21 -19 -1 -19 -2 -3
-14z"/>
<path d="M3250 2420 c0 -5 5 -10 10 -10 6 0 10 5 10 10 0 6 -4 10 -10 10 -5 0
-10 -4 -10 -10z"/>
<path d="M161 2363 c-1 -18 4 -33 9 -33 12 0 12 17 0 45 -7 17 -9 15 -9 -12z"/>
<path d="M200 2368 c0 -16 5 -28 10 -28 13 0 13 20 0 40 -8 12 -10 9 -10 -12z"/>
<path d="M2480 2320 c0 -5 12 -10 28 -10 21 0 24 2 12 10 -20 13 -40 13 -40 0z"/>
<path d="M91 2304 c0 -11 3 -14 6 -6 3 7 2 16 -1 19 -3 4 -6 -2 -5 -13z"/>
<path d="M2450 2164 c-6 -33 -13 -64 -15 -70 -2 -6 7 -11 21 -11 24 0 34 22
13 29 -7 2 -7 11 0 28 l10 25 1 -25 c2 -22 3 -21 12 9 8 29 6 37 -10 54 -20
19 -20 19 -32 -39z"/>
<path d="M2561 2114 c0 -11 3 -14 6 -6 3 7 2 16 -1 19 -3 4 -6 -2 -5 -13z"/>
<path d="M5070 2043 c0 -13 5 -23 10 -23 13 0 13 11 0 30 -8 12 -10 11 -10 -7z"/>
<path d="M2411 1974 c0 -11 3 -14 6 -6 3 7 2 16 -1 19 -3 4 -6 -2 -5 -13z"/>
<path d="M1500 1675 c0 -8 5 -15 10 -15 6 0 10 7 10 15 0 8 -4 15 -10 15 -5 0
-10 -7 -10 -15z"/>
<path d="M513 1673 c9 -2 23 -2 30 0 6 3 -1 5 -18 5 -16 0 -22 -2 -12 -5z"/>
<path d="M5223 1672 c-106 -3 -107 -5 -69 -80 48 -92 43 -91 124 -37 45 30 72
55 72 66 0 21 -19 37 -21 17 -1 -7 -4 -2 -8 12 -6 25 -7 25 -98 22z"/>
<path d="M1955 1560 c-3 -6 -11 -7 -17 -4 -15 9 1 -35 24 -69 11 -15 17 -35
14 -44 -4 -8 -2 -21 3 -27 4 -6 12 -29 16 -51 3 -22 12 -47 19 -55 7 -8 21
-42 31 -75 18 -61 78 -208 95 -235 6 -8 14 -25 20 -37 5 -13 16 -23 25 -23 12
0 15 13 14 63 -1 49 -3 56 -9 32 -5 -21 -8 -24 -9 -10 0 11 -8 31 -17 43 -13
19 -13 23 -1 28 12 4 4 32 -40 137 -30 73 -74 177 -97 231 -39 96 -57 119 -71
96z"/>
<path d="M1328 1463 c7 -3 16 -2 19 1 4 3 -2 6 -13 5 -11 0 -14 -3 -6 -6z"/>
<path d="M1429 1463 c56 -3 78 -8 87 -21 7 -9 10 -20 8 -24 -3 -5 0 -8 5 -8 6
0 11 14 11 30 l0 30 -92 -2 c-93 -2 -93 -2 -19 -5z"/>
<path d="M658 1443 c12 -2 32 -2 45 0 12 2 2 4 -23 4 -25 0 -35 -2 -22 -4z"/>
<path d="M368 1433 c29 -2 74 -2 100 0 26 2 2 3 -53 3 -55 0 -76 -1 -47 -3z"/>
<path d="M1540 1140 c0 -6 5 -20 10 -31 8 -14 7 -19 -2 -19 -9 0 -10 -3 -2 -8
6 -4 14 -14 17 -22 3 -8 5 7 4 34 -1 29 -7 51 -14 54 -7 2 -13 -2 -13 -8z"/>
<path d="M1328 1133 c12 -2 30 -2 40 0 9 3 -1 5 -23 4 -22 0 -30 -2 -17 -4z"/>
<path d="M1498 1133 c6 -2 18 -2 25 0 6 3 1 5 -13 5 -14 0 -19 -2 -12 -5z"/>
<path d="M830 1119 c-58 -3 7 -4 144 -2 138 2 252 6 255 9 6 6 -257 1 -399 -7z"/>
<path d="M425 1100 c-40 -10 108 -11 190 0 52 6 46 7 -50 7 -60 1 -123 -3
-140 -7z"/>
<path d="M305 1090 c-18 -8 -18 -9 5 -8 14 0 39 4 55 8 l30 8 -35 0 c-19 0
-44 -3 -55 -8z"/>
<path d="M30 1080 c0 -12 8 -12 35 0 18 8 17 9 -7 9 -16 1 -28 -3 -28 -9z"/>
<path d="M158 1083 c7 -3 16 -2 19 1 4 3 -2 6 -13 5 -11 0 -14 -3 -6 -6z"/>
<path d="M2243 780 c-1 -11 4 -20 12 -20 8 0 13 9 12 20 -1 11 -6 20 -12 20
-6 0 -11 -9 -12 -20z"/>
<path d="M1595 620 c3 -5 8 -10 11 -10 2 0 4 5 4 10 0 6 -5 10 -11 10 -5 0 -7
-4 -4 -10z"/>
<path d="M1180 610 c-58 -4 -134 -8 -170 -9 -48 -2 -60 -5 -45 -11 25 -12 312
-1 425 15 l85 12 -95 0 c-52 0 -142 -4 -200 -7z"/>
<path d="M685 581 c-62 -5 -66 -7 -34 -13 35 -6 104 3 116 16 4 3 2 5 -3 4 -5
-1 -40 -4 -79 -7z"/>
<path d="M803 583 c9 -2 25 -2 35 0 9 3 1 5 -18 5 -19 0 -27 -2 -17 -5z"/>
<path d="M388 567 c-114 -6 -188 -14 -188 -20 0 -7 36 -8 103 -3 56 3 148 9
205 13 56 3 102 10 102 15 0 4 -8 7 -17 6 -10 -1 -102 -6 -205 -11z"/>
<path d="M2324 569 c-9 -16 2 -22 21 -11 15 8 16 10 1 15 -8 3 -18 2 -22 -4z"/>
<path d="M1590 493 c0 -5 7 -17 15 -27 15 -20 20 -10 9 18 -6 16 -24 22 -24 9z"/>
</g>
</svg>
